PathFileType	4	(X/Y/Z)	6_coords_data.trc
DataRate	CameraRate	NumFrames	NumMarkers	Units	OrigDataRate	OrigDataStartFrame	OrigNumFrames
30.0	30.0	9	21	m	30.0	62	72
Frame#	Time	THUMB_TIP	THUMB_IP	THUMB_MCP	THUMB_CMC	INDEX_TIP	INDEX_DIP	INDEX_PIP	INDEX_MCP	MIDDLE_TIP	MIDDLE_DIP	MIDDLE_PIP	MIDDLE_MCP	RING_TIP	RING_DIP	RING_PIP	RING_MCP	PINKY_TIP	PINKY_DIP	PINKY_PIP	PINKY_MCP	WRIST
X1	Y1	Z1	X2	Y2	Z2	X3	Y3	Z3	X4	Y4	Z4	X5	Y5	Z5	X6	Y6	Z6	X7	Y7	Z7	X8	Y8	Z8	X9	Y9	Z9	X10	Y10	Z10	X11	Y11	Z11	X12	Y12	Z12	X13	Y13	Z13	X14	Y14	Z14	X15	Y15	Z15	X16	Y16	Z16	X17	Y17	Z17	X18	Y18	Z18	X19	Y19	Z19	X20	Y20	Z20	X21	Y21	Z21
60	2.0333333333333243	0.5329244112734836	0.0007522697694536395	-0.14621553931535522	0.520638986449647	-0.00797159822626492	-0.12886726954309446	0.4941489684900754	-0.018732073293698193	-0.11656641084035689	0.4780476669114506	-0.02636958242112586	-0.07567256604920727	0.5797012245670974	0.010686857869948274	-0.14283653868570034	0.5629663165946295	0.016099561305273014	-0.13851849553234308	0.5394729000377149	0.02112796714653309	-0.13111685070305854	0.500161626175792	0.019079346877379444	-0.11486683543089017	0.5918169581203013	0.0034715283135778874	-0.12899041991378213	0.5766246344271495	0.011476543245264259	-0.12323602709212174	0.5512877189307177	0.021667719502825977	-0.1130581005049433	0.5109910868698724	0.026722326619039727	-0.0944360621510581	0.5961502661911664	0.0033998146633889004	-0.11147796813771291	0.5811128891422701	0.009602443350494094	-0.10370592279178029	0.5595421713960904	0.016716675695566674	-0.0934945657294223	0.5234830835608063	0.02261220271420672	-0.07618255314683223	0.5887891811717727	-0.008639625430115427	-0.09820467543521921	0.5765719089025947	-0.002894489050268012	-0.08768176394277921	0.5602098186796154	0.003506065342257836	-0.07618711623163113	0.5289826503113079	0.008014699888622023	-0.05871085744364335	0.462283081001861	-0.023011742144276925	-0.051989820119430985
61	2.0666666666666575	0.5319110529565481	0.0021581377497754684	-0.1466815692642007	0.5199868726454129	-0.0069121430722552946	-0.12925905711132685	0.4937530271365992	-0.017972099219860982	-0.11667801105653748	0.4779692754777596	-0.026118936067145215	-0.07575867292704408	0.5793576748403616	0.011681967891483458	-0.14267721821536739	0.5626245037305841	0.017069282151428666	-0.13832086312475533	0.5391197665059603	0.02198779877002688	-0.13088141722644048	0.4998102548941309	0.01969919893690797	-0.11465918859892718	0.5915225582410608	0.004615648451941068	-0.12908466876828145	0.576302573443676	0.012487548430608508	-0.12322077471285833	0.5509355706279405	0.022477226191556232	-0.11291878187754227	0.5106610963257219	0.027261304835298428	-0.0941777244844701	0.5960398644015232	0.0049611399953155555	-0.11156682017808904	0.5809319835880365	0.01088315211270241	-0.10371304975828388	0.5592889290278904	0.017655469516706823	-0.0934225742937603	0.5232088268279684	0.023073980544619288	-0.07599883194363416	0.5886856034809188	-0.00749871873875696	-0.09824418331045723	0.5764469239257332	-0.0018944159052671772	-0.08767032344302864	0.5600643850884771	0.004332401504902106	-0.07610956286310955	0.52880483043245	0.008420231196838546	-0.058587766661903934	0.462283081001861	-0.023011742144276925	-0.051989820119430985
62	2.0999999999999908	0.5310696346373336	0.003177169317016726	-0.14711474885259812	0.5194486171287102	-0.00612311148127076	-0.12960884330226233	0.49342774747800877	-0.017380529440490844	-0.11676342063453175	0.4779136753748793	-0.02591813842318813	-0.07582062151628069	0.5790681665585307	0.012750880340226645	-0.14259889130661013	0.5623327215956097	0.01809024285495686	-0.1381925220722705	0.5388212474798618	0.02288649250944852	-0.13069476192964696	0.4995375355165125	0.02021382796048965	-0.11446876634881013	0.5913673806961035	0.005920567936925747	-0.12914143335336808	0.5761014896304606	0.013628492403695902	-0.12317985047744584	0.5506763246004835	0.02334364471852335	-0.11275937310363328	0.5103997760562045	0.02772233485928366	-0.09392391104369044	0.5960501267570356	0.006571753917109069	-0.11149774597425638	0.5808570861588228	0.01220478883202658	-0.10359581994142228	0.5591276922170731	0.018635433432890758	-0.0932681760696756	0.5229835707282051	0.023469921834743168	-0.07580532871621362	0.5887233672318584	-0.00640932861250243	-0.09803448169137718	0.5764434990790313	-0.0009169613108900299	-0.08744964633255559	0.560003611053836	0.005143654594228275	-0.07588197432952623	0.5286463712959982	0.008784506811648107	-0.05843631123234372	0.4622830810018608	-0.023011742144276925	-0.051989820119430985
64	2.133333333333335	0.5303668335444169	0.0037436512695888657	-0.14757005702413317	0.5189677346840935	-0.005657744758834626	-0.12997249191161514	0.4931136632808718	-0.01698783365549794	-0.1168570019295055	0.4778975875032504	-0.025753649452798788	-0.07585064252834092	0.5788679330511162	0.013915054642365532	-0.14262183309478046	0.5621235752038268	0.019163541045983612	-0.13814077621576654	0.5386043621834778	0.02377410933307511	-0.13055136833546963	0.4993775438792313	0.02063398952796891	-0.11427155054363884	0.5913800700756382	0.007315646263649556	-0.1291259856485797	0.5760458105005327	0.01482663796002881	-0.12308897587384789	0.5505367875949448	0.024208549077446406	-0.11256856503647678	0.5102404533479684	0.02808486053957704	-0.09366545479756361	0.5962478242068748	0.008163597452682692	-0.11117891654567902	0.5809427803691214	0.013490863006675458	-0.10328107666114777	0.559093852505467	0.019546208773339013	-0.0929787896405403	0.5228378253719598	0.023769151123490317	-0.07558948003947538	0.5889710082872799	-0.005478055065479381	-0.09746012515907418	0.5766093720395176	-7.402683649104791e-05	-0.08692511551606452	0.5600675744799491	0.005846962272087697	-0.07543064552069945	0.5285263419727728	0.009073291279742213	-0.05823689944654151	0.4622830810018609	-0.023011742144276925	-0.051989820119430985
65	2.1666666666666683	0.5297843962762128	0.004031579962780141	-0.14802925740046619	0.5185644219442913	-0.00539429428256788	-0.13032996163193605	0.4928507444838295	-0.01672067942927047	-0.11693818090762984	0.47790002209125315	-0.02562306368516809	-0.07586369424619416	0.5787436317095614	0.015036951304056245	-0.14266141585480796	0.5619888591114582	0.0201864536414067	-0.13810507731783872	0.5384633210008477	0.024604585958793113	-0.1304213935377576	0.4993050818504279	0.020966935849375923	-0.11408016034316716	0.5914966936178797	0.008696283133356353	-0.1290439257901994	0.5760868266695389	0.016003410301359322	-0.12294951087282908	0.5504837765218394	0.025036233648294104	-0.11235227182119575	0.5101554610909265	0.028368517557454065	-0.09341366629033537	0.5965268397919005	0.009670340350962925	-0.11072179999493476	0.581111440946857	0.014718173068385632	-0.10285510670581069	0.5591363662968214	0.020407453442691015	-0.092612638158243	0.522744695295292	0.0240013081801832	-0.07536586095662509	0.5893197463548289	-0.0046738311848182335	-0.0966862281805701	0.5768629259507949	0.000669953739319662	-0.08623292305222907	0.5601980989744502	0.006473172636096924	-0.07485671053291587	0.5284311833539733	0.009311434905583615	-0.05801358759650313	0.4622830810018609	-0.023011742144276925	-0.051989820119430985
66	2.200000000000002	0.5293544740760827	0.00406949918056021	-0.1484594313125347	0.5182625838975099	-0.00531343886361102	-0.13065689087793025	0.49265793621805054	-0.016570397767868283	-0.11700028465827908	0.4779201719775549	-0.02552744883267244	-0.07586077151806242	0.578697802641635	0.01608498127240543	-0.14270312707310692	0.5619320527492246	0.021133661652939728	-0.13807490311997392	0.5384017686474492	0.02536231407030265	-0.1302996821055678	0.4993203318049556	0.021211702553277534	-0.11389694415238055	0.5917046072536294	0.010009284229953508	-0.12889241402821888	0.5762160638827651	0.017115410306609236	-0.12275987813908375	0.5505136910152488	0.025799930992508324	-0.11211202955660657	0.5101436682764251	0.028573222823110145	-0.09317217640276279	0.5968635179883953	0.011029094903492576	-0.11014831673675761	0.5813461934679531	0.015841974250743407	-0.10233494153035089	0.5592454111413249	0.021192493127022094	-0.0921807627203445	0.5227027018979027	0.02416832130077695	-0.07513682884840639	0.5897366093177345	-0.004022369900727685	-0.0957606528606044	0.577180436766333	0.001292953714573275	-0.0854122295157633	0.5603809063566865	0.007004626078070508	-0.07418883449342611	0.5283627769465542	0.009494997834842644	-0.05777174313749181	0.4622830810018608	-0.023011742144276925	-0.051989820119430985
67	2.233333333333335	0.529109022562939	0.0038857124107209984	-0.14882681055490155	0.518086324986962	-0.0053959063944051255	-0.13092843938585724	0.49255410886226436	-0.016528376823150448	-0.11703620983423967	0.4779571560923942	-0.0254678809455976	-0.07584271233913828	0.5787338739319323	0.017027401133959175	-0.14273261798066386	0.5619573382550399	0.021979738486915368	-0.13803983571163922	0.5384237083329538	0.026031607679562696	-0.13018105388899232	0.4994231846310929	0.02136703189258382	-0.11372392845020052	0.591993147909098	0.011200753520526407	-0.12866954115240514	0.5764265900793627	0.018118533322780128	-0.12251920783289834	0.5506237457509529	0.02647233182396258	-0.11184977367894741	0.5102036666025473	0.02869861728107259	-0.09294451579390109	0.5972371310420508	0.012176198732804067	-0.10948203993601918	0.5816322209989797	0.016816493342321714	-0.10173901413956574	0.5594123368450961	0.02187381056536497	-0.0916950970902515	0.5227101335762685	0.024272008004674328	-0.0749046903573651	0.5901899629686168	-0.0035499816022964703	-0.09473241349747608	0.5775393043197504	0.0017724055763229662	-0.08450338468381405	0.5606026885245607	0.007423221015627202	-0.07345660464268644	0.528322950651981	0.009620031144168428	-0.05751684306552721	0.462283081001861	-0.023011742144276925	-0.051989820119430985
68	2.2666666666666684	0.5290797332384892	0.003508379326565003	-0.14909670474096048	0.5180598550951633	-0.0056223752932220705	-0.13111917416027494	0.49255793479207244	-0.016586029558196103	-0.11703832383037958	0.47801001837192525	-0.025445454806099832	-0.075810193723507	0.5788560501745524	0.017832426230426024	-0.14273567706271365	0.5620695031037866	0.02269924830231307	-0.13798953332684172	0.5385334443502902	0.02659678239917307	-0.1300602837207453	0.49961316174398585	0.021431433309847203	-0.11356280316670905	0.5923534959352378	0.012216351889670518	-0.12837425174607833	0.5767129075134365	0.018968164561698475	-0.12222729969960429	0.5508119172728123	0.027025723001987023	-0.11156784349694376	0.5103337091870214	0.028744138045744827	-0.09273410672218785	0.5976292921364156	0.013047634785698259	-0.10874779841738538	0.5819566670160092	0.01759535937624268	-0.10108705283462577	0.5596297017866843	0.02242327907081887	-0.0911684947705097	0.5227650607894203	0.02431409600229506	-0.0746717105543512	0.590649869771469	-0.003283522349423418	-0.09365192971028519	0.5779184254544266	0.0020853091478931773	-0.083548169323406	0.5608513568217972	0.007710518283138179	-0.07269071983128897	0.5283134340598374	0.009682614426474445	-0.057254468014925064	0.4622830810018609	-0.023011742144276925	-0.051989820119430985
69	2.3000000000000016	0.5292976858032518	0.0029654951798298024	-0.14923320880864616	0.5182071811048294	-0.005973475864859967	-0.13120280387152747	0.49268767307725225	-0.01673479462637084	-0.11699827189952738	0.4780777239286682	-0.02546129135034203	-0.07576372763379899	0.5790690706860492	0.01846832066934334	-0.14269812783644112	0.5622737414047263	0.02326681735092828	-0.1379136379024193	0.5387354682833694	0.02704221605754442	-0.12993204056413593	0.4998893303225771	0.021403255876226712	-0.11341490438365308	0.5927782282285012	0.013001544633221562	-0.12800609365837134	0.5770705980113534	0.019619377863229426	-0.12188444058904886	0.5510767433486987	0.027432141338540106	-0.11126889554154253	0.510531647070512	0.02870909742796024	-0.09254424676143777	0.598022769991004	0.013579389758216154	-0.10797100727352951	0.5823081590375346	0.018132078956928588	-0.10039974425861384	0.5598910913454219	0.02281245383887598	-0.09061459499804189	0.5228653492345368	0.024296246226883533	-0.07444012080913778	0.5910880682098697	-0.003250274877096282	-0.09257093321666424	0.578298284225895	0.002208389878765038	-0.08258973064751549	0.5611160785421574	0.007847867930607655	-0.07192295446422006	0.5283358058222195	0.009678896446873031	-0.05699028872835363	0.4622830810018609	-0.023011742144276925	-0.051989820119430985
